<svg width="116" height="58" viewBox="0 0 116 58" fill="none" xmlns="http://www.w3.org/2000/svg">
<mask id="path-1-inside-1_281_1340" fill="white">
<path fill-rule="evenodd" clip-rule="evenodd" d="M81.0005 3H29.0004C14.641 3 3.00043 14.6406 3.00043 29C3.00043 43.3594 14.641 55 29.0004 55H81.0005C81.0281 55 81.0558 55 81.0835 54.9999H108.316C111.272 54.9999 113.204 51.8576 111.822 49.2427C107.449 40.937 107.031 31.603 107 29.1209C107 29.0806 107 29.0403 107 29C107 28.8896 107 28.7793 106.998 28.6692C106.999 28.5497 107.001 28.4873 107.001 28.4873L106.996 28.4919C106.725 14.367 95.1901 3 81.0005 3Z"/>
</mask>
<path fill-rule="evenodd" clip-rule="evenodd" d="M81.0005 3H29.0004C14.641 3 3.00043 14.6406 3.00043 29C3.00043 43.3594 14.641 55 29.0004 55H81.0005C81.0281 55 81.0558 55 81.0835 54.9999H108.316C111.272 54.9999 113.204 51.8576 111.822 49.2427C107.449 40.937 107.031 31.603 107 29.1209C107 29.0806 107 29.0403 107 29C107 28.8896 107 28.7793 106.998 28.6692C106.999 28.5497 107.001 28.4873 107.001 28.4873L106.996 28.4919C106.725 14.367 95.1901 3 81.0005 3Z" fill="white"/>
<path d="M81.0835 54.9999L81.0771 52.9999H81.0835V54.9999ZM111.822 49.2427L110.053 50.1771L110.052 50.1745L111.822 49.2427ZM107 29.1209L105 29.1456L105 29.1287L105 29.1118L107 29.1209ZM106.998 28.6692L104.999 28.6941L104.998 28.6757L104.998 28.6573L106.998 28.6692ZM107.001 28.4873L105.657 27.0057L109.116 23.8694L109 28.5369L107.001 28.4873ZM106.996 28.4919L108.339 29.9735L105.08 32.9286L104.996 28.5302L106.996 28.4919ZM29.0004 1H81.0005V5H29.0004V1ZM1.00043 29C1.00043 13.536 13.5365 1 29.0004 1V5C15.7456 5 5.00043 15.7452 5.00043 29H1.00043ZM29.0004 57C13.5365 57 1.00043 44.464 1.00043 29H5.00043C5.00043 42.2548 15.7456 53 29.0004 53V57ZM81.0005 57H29.0004V53H81.0005V57ZM81.0898 56.9999C81.0599 57 81.0301 57 81.0005 57V53C81.0261 53 81.0517 53 81.0771 52.9999L81.0898 56.9999ZM108.316 56.9999H81.0835V52.9999H108.316V56.9999ZM113.59 48.3083C115.69 52.2832 112.747 56.9999 108.316 56.9999V52.9999C109.797 52.9999 110.717 51.432 110.053 50.1771L113.59 48.3083ZM109 29.0962C109.03 31.4904 109.445 40.4344 113.592 48.311L110.052 50.1745C105.453 41.4397 105.032 31.7157 105 29.1456L109 29.0962ZM109 29C109 29.0434 109 29.0867 109 29.13L105 29.1118C105 29.0746 105 29.0373 105 29H109ZM108.998 28.6442C109 28.7627 109 28.8813 109 29H105C105 28.8979 105 28.7959 104.999 28.6941L108.998 28.6442ZM107.001 28.4873C109 28.5369 109 28.5368 109 28.5368C109 28.5368 109 28.5368 109 28.5367C109 28.5367 109 28.5367 109 28.5366C109 28.5365 109 28.5364 109 28.5364C109 28.5362 109 28.5361 109 28.5359C109 28.5357 109 28.5355 109 28.5353C109 28.5351 109 28.535 109 28.5353C109 28.5357 109 28.5371 109 28.5394C109 28.544 109 28.5524 109 28.5646C108.999 28.5888 108.999 28.6279 108.998 28.6811L104.998 28.6573C104.999 28.591 104.999 28.5391 105 28.5023C105 28.4839 105.001 28.4692 105.001 28.4585C105.001 28.4531 105.001 28.4486 105.001 28.4452C105.001 28.4434 105.001 28.442 105.001 28.4407C105.001 28.4401 105.001 28.4395 105.001 28.439C105.001 28.4388 105.001 28.4386 105.001 28.4383C105.001 28.4382 105.001 28.4381 105.001 28.438C105.001 28.438 105.001 28.4379 105.001 28.4379C105.001 28.4378 105.001 28.4378 105.001 28.4378C105.001 28.4378 105.001 28.4377 107.001 28.4873ZM105.652 27.0103L105.657 27.0057L108.344 29.9689L108.339 29.9735L105.652 27.0103ZM81.0005 1C96.2818 1 108.704 13.2413 108.995 28.4536L104.996 28.5302C104.746 15.4927 94.0984 5 81.0005 5V1Z" fill="#001963" mask="url(#path-1-inside-1_281_1340)"/>
<path d="M43.2751 34.86C42.1551 34.86 41.1951 34.6626 40.3951 34.268C39.6057 33.8733 38.9977 33.26 38.5711 32.428C38.1551 31.5853 37.9471 30.5026 37.9471 29.18C37.9471 27.2493 38.4164 25.82 39.3551 24.892C40.2937 23.964 41.6004 23.5 43.2751 23.5C44.1817 23.5 44.9977 23.6546 45.7231 23.964C46.4591 24.2733 47.0404 24.7426 47.4671 25.372C47.9044 25.9906 48.1231 26.78 48.1231 27.74H45.9951C45.9951 27.2066 45.8777 26.7586 45.6431 26.396C45.4191 26.0226 45.1044 25.74 44.6991 25.548C44.2937 25.356 43.8297 25.26 43.3071 25.26C42.5817 25.26 41.9791 25.404 41.4991 25.692C41.0191 25.9693 40.6617 26.3853 40.4271 26.94C40.2031 27.4946 40.0911 28.1826 40.0911 29.004V29.356C40.0911 30.188 40.2031 30.8813 40.4271 31.436C40.6617 31.9906 41.0137 32.4066 41.4831 32.684C41.9631 32.9613 42.5711 33.1 43.3071 33.1C43.8617 33.1 44.3471 33.0093 44.7631 32.828C45.1791 32.636 45.4991 32.3586 45.7231 31.996C45.9577 31.6226 46.0751 31.1693 46.0751 30.636H48.1231C48.1231 31.596 47.9097 32.3906 47.4831 33.02C47.0564 33.6386 46.4751 34.1026 45.7391 34.412C45.0137 34.7106 44.1924 34.86 43.2751 34.86ZM50.0483 34.668V23.1H52.0003V27.212H52.1123C52.2936 26.988 52.507 26.7906 52.7523 26.62C52.9976 26.4493 53.275 26.316 53.5843 26.22C53.9043 26.1133 54.2563 26.06 54.6403 26.06C55.1736 26.06 55.643 26.156 56.0483 26.348C56.4643 26.54 56.7896 26.8493 57.0243 27.276C57.259 27.7026 57.3763 28.2733 57.3763 28.988V34.668H55.4083V29.34C55.4083 29.0413 55.371 28.796 55.2963 28.604C55.2323 28.4013 55.131 28.2413 54.9923 28.124C54.8643 27.996 54.7043 27.9053 54.5123 27.852C54.3203 27.7986 54.107 27.772 53.8723 27.772C53.5203 27.772 53.2003 27.8573 52.9123 28.028C52.635 28.1986 52.411 28.4333 52.2403 28.732C52.0803 29.0306 52.0003 29.3773 52.0003 29.772V34.668H50.0483ZM61.8021 34.86C61.5674 34.86 61.2954 34.828 60.9861 34.764C60.6874 34.7106 60.3941 34.604 60.1061 34.444C59.8287 34.284 59.5994 34.0493 59.4181 33.74C59.2367 33.42 59.1461 33.004 59.1461 32.492C59.1461 31.916 59.2741 31.4413 59.5301 31.068C59.7861 30.684 60.1434 30.3853 60.6021 30.172C61.0714 29.948 61.6261 29.7933 62.2661 29.708C62.9167 29.612 63.6261 29.564 64.3941 29.564V28.876C64.3941 28.6306 64.3567 28.412 64.2821 28.22C64.2074 28.028 64.0687 27.8786 63.8661 27.772C63.6741 27.6546 63.3807 27.596 62.9861 27.596C62.5914 27.596 62.2821 27.644 62.0581 27.74C61.8341 27.836 61.6794 27.9533 61.5941 28.092C61.5087 28.2306 61.4661 28.3746 61.4661 28.524V28.748H59.5781C59.5674 28.6946 59.5621 28.6413 59.5621 28.588C59.5621 28.5346 59.5621 28.4706 59.5621 28.396C59.5621 27.916 59.7061 27.5 59.9941 27.148C60.2821 26.796 60.6821 26.5293 61.1941 26.348C61.7061 26.156 62.2981 26.06 62.9701 26.06C63.7381 26.06 64.3674 26.1666 64.8581 26.38C65.3594 26.5933 65.7327 26.8973 65.9781 27.292C66.2234 27.6866 66.3461 28.1666 66.3461 28.732V32.7C66.3461 32.9026 66.4047 33.0466 66.5221 33.132C66.6394 33.2173 66.7674 33.26 66.9061 33.26H67.4181V34.604C67.3114 34.6466 67.1567 34.6946 66.9541 34.748C66.7514 34.812 66.5007 34.844 66.2021 34.844C65.9247 34.844 65.6741 34.796 65.4501 34.7C65.2367 34.6146 65.0554 34.4866 64.9061 34.316C64.7567 34.1453 64.6501 33.9426 64.5861 33.708H64.4901C64.3087 33.932 64.0901 34.1346 63.8341 34.316C63.5887 34.4866 63.2954 34.62 62.9541 34.716C62.6234 34.812 62.2394 34.86 61.8021 34.86ZM62.3941 33.26C62.7141 33.26 62.9967 33.212 63.2421 33.116C63.4981 33.02 63.7061 32.8866 63.8661 32.716C64.0367 32.5453 64.1647 32.3373 64.2501 32.092C64.3461 31.8466 64.3941 31.58 64.3941 31.292V30.908C63.8074 30.908 63.2634 30.9453 62.7621 31.02C62.2714 31.0946 61.8767 31.2333 61.5781 31.436C61.2901 31.6386 61.1461 31.9266 61.1461 32.3C61.1461 32.492 61.1887 32.6626 61.2741 32.812C61.3701 32.9506 61.5087 33.0626 61.6901 33.148C61.8821 33.2226 62.1167 33.26 62.3941 33.26ZM71.0067 34.86C70.484 34.86 70.0733 34.7586 69.7747 34.556C69.476 34.3426 69.2627 34.076 69.1347 33.756C69.0173 33.4253 68.9587 33.0893 68.9587 32.748V27.852H67.9507V26.252H69.0067L69.3587 23.9H70.9107V26.252H72.3667V27.852H70.9107V32.556C70.9107 32.78 70.9693 32.956 71.0867 33.084C71.204 33.2013 71.38 33.26 71.6147 33.26H72.3667V34.604C72.26 34.6466 72.1267 34.684 71.9667 34.716C71.8173 34.7586 71.6573 34.7906 71.4867 34.812C71.316 34.844 71.156 34.86 71.0067 34.86Z" fill="#001963"/>
</svg>
